<mxfile host="app.diagrams.net" agent="Mozilla/5.0 (Windows NT 10.0; Win64; x64) AppleWebKit/537.36 (KHTML, like Gecko) Chrome/127.0.0.0 Safari/537.36" version="24.7.7">
  <diagram id="C5RBs43oDa-KdzZeNtuy" name="Page-1">
    <mxGraphModel dx="794" dy="446" grid="1" gridSize="10" guides="1" tooltips="1" connect="1" arrows="1" fold="1" page="1" pageScale="1" pageWidth="827" pageHeight="1169" math="0" shadow="0">
      <root>
        <mxCell id="WIyWlLk6GJQsqaUBKTNV-0" />
        <mxCell id="WIyWlLk6GJQsqaUBKTNV-1" parent="WIyWlLk6GJQsqaUBKTNV-0" />
        <mxCell id="WIyWlLk6GJQsqaUBKTNV-2" value="" style="rounded=0;html=1;jettySize=auto;orthogonalLoop=1;fontSize=11;endArrow=block;endFill=0;endSize=8;strokeWidth=1;shadow=0;labelBackgroundColor=none;edgeStyle=orthogonalEdgeStyle;" parent="WIyWlLk6GJQsqaUBKTNV-1" source="WIyWlLk6GJQsqaUBKTNV-3" edge="1">
          <mxGeometry relative="1" as="geometry">
            <mxPoint x="220" y="200" as="targetPoint" />
          </mxGeometry>
        </mxCell>
        <mxCell id="WIyWlLk6GJQsqaUBKTNV-3" value="&lt;font style=&quot;vertical-align: inherit;&quot;&gt;&lt;font style=&quot;vertical-align: inherit;&quot;&gt;Início&lt;/font&gt;&lt;/font&gt;" style="rounded=1;whiteSpace=wrap;html=1;fontSize=12;glass=0;strokeWidth=1;shadow=0;" parent="WIyWlLk6GJQsqaUBKTNV-1" vertex="1">
          <mxGeometry x="160" y="80" width="120" height="40" as="geometry" />
        </mxCell>
        <mxCell id="Dwow6FFoU8mfpzsZpaU6-1" value="" style="edgeStyle=orthogonalEdgeStyle;rounded=0;orthogonalLoop=1;jettySize=auto;html=1;" edge="1" parent="WIyWlLk6GJQsqaUBKTNV-1" source="Dwow6FFoU8mfpzsZpaU6-0" target="WIyWlLk6GJQsqaUBKTNV-3">
          <mxGeometry relative="1" as="geometry">
            <Array as="points">
              <mxPoint x="220" y="210" />
              <mxPoint x="220" y="210" />
            </Array>
          </mxGeometry>
        </mxCell>
        <mxCell id="Dwow6FFoU8mfpzsZpaU6-4" value="" style="edgeStyle=orthogonalEdgeStyle;rounded=0;orthogonalLoop=1;jettySize=auto;html=1;" edge="1" parent="WIyWlLk6GJQsqaUBKTNV-1" source="Dwow6FFoU8mfpzsZpaU6-0" target="Dwow6FFoU8mfpzsZpaU6-3">
          <mxGeometry relative="1" as="geometry" />
        </mxCell>
        <mxCell id="Dwow6FFoU8mfpzsZpaU6-0" value="Mostrar ao usuário o bloco de digitação para adicionar uma tarefa" style="rounded=0;whiteSpace=wrap;html=1;" vertex="1" parent="WIyWlLk6GJQsqaUBKTNV-1">
          <mxGeometry x="160" y="200" width="120" height="60" as="geometry" />
        </mxCell>
        <mxCell id="Dwow6FFoU8mfpzsZpaU6-7" value="" style="edgeStyle=orthogonalEdgeStyle;rounded=0;orthogonalLoop=1;jettySize=auto;html=1;entryX=1;entryY=0.75;entryDx=0;entryDy=0;" edge="1" parent="WIyWlLk6GJQsqaUBKTNV-1" source="Dwow6FFoU8mfpzsZpaU6-3" target="WIyWlLk6GJQsqaUBKTNV-3">
          <mxGeometry relative="1" as="geometry">
            <mxPoint x="385" y="385" as="targetPoint" />
            <Array as="points">
              <mxPoint x="390" y="385" />
              <mxPoint x="390" y="110" />
            </Array>
          </mxGeometry>
        </mxCell>
        <mxCell id="Dwow6FFoU8mfpzsZpaU6-10" value="" style="edgeStyle=orthogonalEdgeStyle;rounded=0;orthogonalLoop=1;jettySize=auto;html=1;" edge="1" parent="WIyWlLk6GJQsqaUBKTNV-1" source="Dwow6FFoU8mfpzsZpaU6-3" target="Dwow6FFoU8mfpzsZpaU6-9">
          <mxGeometry relative="1" as="geometry" />
        </mxCell>
        <mxCell id="Dwow6FFoU8mfpzsZpaU6-3" value="Há algo escrito no&amp;nbsp;&lt;div&gt;campo de digitação?&lt;/div&gt;" style="rhombus;whiteSpace=wrap;html=1;" vertex="1" parent="WIyWlLk6GJQsqaUBKTNV-1">
          <mxGeometry x="147.5" y="330" width="145" height="110" as="geometry" />
        </mxCell>
        <mxCell id="Dwow6FFoU8mfpzsZpaU6-8" value="Não" style="text;html=1;align=center;verticalAlign=middle;resizable=0;points=[];autosize=1;strokeColor=none;fillColor=none;" vertex="1" parent="WIyWlLk6GJQsqaUBKTNV-1">
          <mxGeometry x="280" y="360" width="50" height="30" as="geometry" />
        </mxCell>
        <mxCell id="Dwow6FFoU8mfpzsZpaU6-12" value="" style="edgeStyle=orthogonalEdgeStyle;rounded=0;orthogonalLoop=1;jettySize=auto;html=1;" edge="1" parent="WIyWlLk6GJQsqaUBKTNV-1" source="Dwow6FFoU8mfpzsZpaU6-9" target="Dwow6FFoU8mfpzsZpaU6-11">
          <mxGeometry relative="1" as="geometry" />
        </mxCell>
        <mxCell id="Dwow6FFoU8mfpzsZpaU6-9" value="Validar a tarefa digitada" style="whiteSpace=wrap;html=1;" vertex="1" parent="WIyWlLk6GJQsqaUBKTNV-1">
          <mxGeometry x="160" y="545" width="120" height="60" as="geometry" />
        </mxCell>
        <mxCell id="Dwow6FFoU8mfpzsZpaU6-17" value="" style="edgeStyle=orthogonalEdgeStyle;rounded=0;orthogonalLoop=1;jettySize=auto;html=1;" edge="1" parent="WIyWlLk6GJQsqaUBKTNV-1" source="Dwow6FFoU8mfpzsZpaU6-11" target="Dwow6FFoU8mfpzsZpaU6-16">
          <mxGeometry relative="1" as="geometry" />
        </mxCell>
        <mxCell id="Dwow6FFoU8mfpzsZpaU6-11" value="salvá-la na lista de tarefas" style="whiteSpace=wrap;html=1;" vertex="1" parent="WIyWlLk6GJQsqaUBKTNV-1">
          <mxGeometry x="160" y="685" width="120" height="60" as="geometry" />
        </mxCell>
        <mxCell id="Dwow6FFoU8mfpzsZpaU6-13" value="Sim" style="text;html=1;align=center;verticalAlign=middle;resizable=0;points=[];autosize=1;strokeColor=none;fillColor=none;" vertex="1" parent="WIyWlLk6GJQsqaUBKTNV-1">
          <mxGeometry x="220" y="440" width="40" height="30" as="geometry" />
        </mxCell>
        <mxCell id="Dwow6FFoU8mfpzsZpaU6-19" value="" style="edgeStyle=orthogonalEdgeStyle;rounded=0;orthogonalLoop=1;jettySize=auto;html=1;" edge="1" parent="WIyWlLk6GJQsqaUBKTNV-1" source="Dwow6FFoU8mfpzsZpaU6-16" target="Dwow6FFoU8mfpzsZpaU6-18">
          <mxGeometry relative="1" as="geometry" />
        </mxCell>
        <mxCell id="Dwow6FFoU8mfpzsZpaU6-24" value="" style="edgeStyle=orthogonalEdgeStyle;rounded=0;orthogonalLoop=1;jettySize=auto;html=1;" edge="1" parent="WIyWlLk6GJQsqaUBKTNV-1" source="Dwow6FFoU8mfpzsZpaU6-16" target="Dwow6FFoU8mfpzsZpaU6-23">
          <mxGeometry relative="1" as="geometry" />
        </mxCell>
        <mxCell id="Dwow6FFoU8mfpzsZpaU6-16" value="O usuário&amp;nbsp;&lt;div&gt;verificou a tarefa como completa?&lt;/div&gt;" style="rhombus;whiteSpace=wrap;html=1;" vertex="1" parent="WIyWlLk6GJQsqaUBKTNV-1">
          <mxGeometry x="385" y="663.75" width="120" height="102.5" as="geometry" />
        </mxCell>
        <mxCell id="Dwow6FFoU8mfpzsZpaU6-25" style="edgeStyle=orthogonalEdgeStyle;rounded=0;orthogonalLoop=1;jettySize=auto;html=1;entryX=1;entryY=0.5;entryDx=0;entryDy=0;" edge="1" parent="WIyWlLk6GJQsqaUBKTNV-1" source="Dwow6FFoU8mfpzsZpaU6-18" target="Dwow6FFoU8mfpzsZpaU6-23">
          <mxGeometry relative="1" as="geometry">
            <Array as="points">
              <mxPoint x="680" y="920" />
            </Array>
          </mxGeometry>
        </mxCell>
        <mxCell id="Dwow6FFoU8mfpzsZpaU6-18" value="Riscar o nome da tarefa" style="whiteSpace=wrap;html=1;" vertex="1" parent="WIyWlLk6GJQsqaUBKTNV-1">
          <mxGeometry x="620" y="685" width="120" height="60" as="geometry" />
        </mxCell>
        <mxCell id="Dwow6FFoU8mfpzsZpaU6-20" value="Sim" style="text;html=1;align=center;verticalAlign=middle;resizable=0;points=[];autosize=1;strokeColor=none;fillColor=none;" vertex="1" parent="WIyWlLk6GJQsqaUBKTNV-1">
          <mxGeometry x="490" y="685" width="40" height="30" as="geometry" />
        </mxCell>
        <mxCell id="Dwow6FFoU8mfpzsZpaU6-27" value="" style="edgeStyle=orthogonalEdgeStyle;rounded=0;orthogonalLoop=1;jettySize=auto;html=1;" edge="1" parent="WIyWlLk6GJQsqaUBKTNV-1" source="Dwow6FFoU8mfpzsZpaU6-23" target="Dwow6FFoU8mfpzsZpaU6-26">
          <mxGeometry relative="1" as="geometry" />
        </mxCell>
        <mxCell id="Dwow6FFoU8mfpzsZpaU6-33" value="" style="edgeStyle=orthogonalEdgeStyle;rounded=0;orthogonalLoop=1;jettySize=auto;html=1;" edge="1" parent="WIyWlLk6GJQsqaUBKTNV-1" source="Dwow6FFoU8mfpzsZpaU6-23" target="Dwow6FFoU8mfpzsZpaU6-32">
          <mxGeometry relative="1" as="geometry" />
        </mxCell>
        <mxCell id="Dwow6FFoU8mfpzsZpaU6-23" value="O usuário&lt;div&gt;&amp;nbsp;clicou para excluir&amp;nbsp;&lt;/div&gt;&lt;div&gt;a tarefa?&lt;/div&gt;" style="rhombus;whiteSpace=wrap;html=1;" vertex="1" parent="WIyWlLk6GJQsqaUBKTNV-1">
          <mxGeometry x="387.5" y="870" width="115" height="100" as="geometry" />
        </mxCell>
        <mxCell id="Dwow6FFoU8mfpzsZpaU6-29" value="" style="edgeStyle=orthogonalEdgeStyle;rounded=0;orthogonalLoop=1;jettySize=auto;html=1;" edge="1" parent="WIyWlLk6GJQsqaUBKTNV-1" source="Dwow6FFoU8mfpzsZpaU6-26">
          <mxGeometry relative="1" as="geometry">
            <mxPoint x="445" y="1210" as="targetPoint" />
          </mxGeometry>
        </mxCell>
        <mxCell id="Dwow6FFoU8mfpzsZpaU6-26" value="Excluir a tarefa da lista" style="whiteSpace=wrap;html=1;" vertex="1" parent="WIyWlLk6GJQsqaUBKTNV-1">
          <mxGeometry x="385" y="1070" width="120" height="60" as="geometry" />
        </mxCell>
        <mxCell id="Dwow6FFoU8mfpzsZpaU6-30" value="Fim" style="rounded=1;whiteSpace=wrap;html=1;fontSize=12;glass=0;strokeWidth=1;shadow=0;" vertex="1" parent="WIyWlLk6GJQsqaUBKTNV-1">
          <mxGeometry x="385" y="1210" width="120" height="40" as="geometry" />
        </mxCell>
        <mxCell id="Dwow6FFoU8mfpzsZpaU6-31" value="Sim" style="text;html=1;align=center;verticalAlign=middle;resizable=0;points=[];autosize=1;strokeColor=none;fillColor=none;" vertex="1" parent="WIyWlLk6GJQsqaUBKTNV-1">
          <mxGeometry x="440" y="958" width="40" height="30" as="geometry" />
        </mxCell>
        <mxCell id="Dwow6FFoU8mfpzsZpaU6-36" style="edgeStyle=orthogonalEdgeStyle;rounded=0;orthogonalLoop=1;jettySize=auto;html=1;" edge="1" parent="WIyWlLk6GJQsqaUBKTNV-1" source="Dwow6FFoU8mfpzsZpaU6-32" target="Dwow6FFoU8mfpzsZpaU6-30">
          <mxGeometry relative="1" as="geometry">
            <Array as="points">
              <mxPoint x="220" y="1230" />
            </Array>
          </mxGeometry>
        </mxCell>
        <mxCell id="Dwow6FFoU8mfpzsZpaU6-32" value="Mantê-la na la lista de tarefas" style="whiteSpace=wrap;html=1;" vertex="1" parent="WIyWlLk6GJQsqaUBKTNV-1">
          <mxGeometry x="160" y="1070" width="120" height="60" as="geometry" />
        </mxCell>
        <mxCell id="Dwow6FFoU8mfpzsZpaU6-37" value="Não" style="text;html=1;align=center;verticalAlign=middle;resizable=0;points=[];autosize=1;strokeColor=none;fillColor=none;" vertex="1" parent="WIyWlLk6GJQsqaUBKTNV-1">
          <mxGeometry x="355" y="888" width="50" height="30" as="geometry" />
        </mxCell>
        <mxCell id="Dwow6FFoU8mfpzsZpaU6-38" value="Não" style="text;html=1;align=center;verticalAlign=middle;resizable=0;points=[];autosize=1;strokeColor=none;fillColor=none;" vertex="1" parent="WIyWlLk6GJQsqaUBKTNV-1">
          <mxGeometry x="440" y="758" width="50" height="30" as="geometry" />
        </mxCell>
      </root>
    </mxGraphModel>
  </diagram>
</mxfile>
